<?xml version="1.0" encoding="UTF-8" standalone="no"?>
<!DOCTYPE svg PUBLIC "-//W3C//DTD SVG 1.1//EN" "http://www.w3.org/Graphics/SVG/1.1/DTD/svg11.dtd">
<svg stroke-miterlimit="10" style="fill-rule:nonzero;clip-rule:evenodd;stroke-linecap:round;stroke-linejoin:round;" version="1.1" viewBox="0 0 260 44" width="260" height="44" xml:space="preserve" xmlns="http://www.w3.org/2000/svg" xmlns:xlink="http://www.w3.org/1999/xlink">
<defs/>
<g id="Head-logo">
<g opacity="1">
<path d="M0.933969 8.23877C0.933969 4.43369 4.0186 1.34907 7.82367 1.34907C11.6288 1.34907 14.7134 4.43369 14.7134 8.23877C14.7134 12.0439 11.6288 15.1285 7.82367 15.1285C4.0186 15.1285 0.933969 12.0439 0.933969 8.23877Z" fill="#dbe2ed" fill-rule="nonzero" opacity="1" stroke="none"/>
<path d="M0 6.8897C0 3.08463 3.08463 0 6.8897 0C10.6948 0 13.7794 3.08463 13.7794 6.8897C13.7794 10.6948 10.6948 13.7794 6.8897 13.7794C3.08463 13.7794 0 10.6948 0 6.8897Z" fill="#4065d0" fill-rule="nonzero" opacity="1" stroke="none"/>
</g>
<g opacity="1">
<path d="M0.933969 36.4139C0.933969 32.6088 4.0186 29.5242 7.82367 29.5242C11.6288 29.5242 14.7134 32.6088 14.7134 36.4139C14.7134 40.219 11.6288 43.3036 7.82367 43.3036C4.0186 43.3036 0.933969 40.219 0.933969 36.4139Z" fill="#dbe2ed" fill-rule="nonzero" opacity="1" stroke="none"/>
<path d="M0 35.0648C0 31.2597 3.08463 28.1751 6.8897 28.1751C10.6948 28.1751 13.7794 31.2597 13.7794 35.0648C13.7794 38.8699 10.6948 41.9545 6.8897 41.9545C3.08463 41.9545 0 38.8699 0 35.0648Z" fill="#4065d0" fill-rule="nonzero" opacity="1" stroke="none"/>
</g>
<g opacity="1">
<path d="M26.0718 22.3263C26.0718 18.5213 29.1564 15.4366 32.9615 15.4366C36.7666 15.4366 39.8512 18.5213 39.8512 22.3263C39.8512 26.1314 36.7666 29.216 32.9615 29.216C29.1564 29.216 26.0718 26.1314 26.0718 22.3263Z" fill="#dbe2ed" fill-rule="nonzero" opacity="1" stroke="none"/>
<path d="M25.1378 20.9773C25.1378 17.1722 28.2225 14.0876 32.0275 14.0876C35.8326 14.0876 38.9172 17.1722 38.9172 20.9773C38.9172 24.7823 35.8326 27.867 32.0275 27.867C28.2225 27.867 25.1378 24.7823 25.1378 20.9773Z" fill="#4065d0" fill-rule="nonzero" opacity="1" stroke="none"/>
</g>
<path d="M5.67004 7.6531L20.2067 15.8874L30.6893 21.8252" fill="none" opacity="1" stroke="#4065d0" stroke-linecap="butt" stroke-linejoin="round" stroke-width="1"/>
<path d="M6.38776 5.89866L20.9244 14.1329L31.4071 20.0708" fill="none" opacity="1" stroke="#4065d0" stroke-linecap="butt" stroke-linejoin="round" stroke-width="1"/>
<path d="M7.06315 34.2199L21.5559 26.5818L32.0069 21.0739" fill="none" opacity="1" stroke="#4065d0" stroke-linecap="butt" stroke-linejoin="round" stroke-width="1"/>
<g fill="#dbe2ed" opacity="1" stroke="none">
<path d="M53.7117 18.4443L56.3957 24.2303L59.1237 18.4443L63.5677 18.4443L57.6937 29.7303L55.0317 29.7303L49.2237 18.4443L53.7117 18.4443Z"/>
<path d="M64.8097 22.1843L71.1237 22.1843L71.1237 25.5063L64.8097 25.5063L64.8097 22.1843Z"/>
<path d="M73.4877 18.4443L77.4697 18.4443L77.4697 19.8743C78.0124 19.2143 78.5624 18.7707 79.1197 18.5433C79.677 18.316 80.3297 18.2023 81.0777 18.2023C81.8697 18.2023 82.548 18.3307 83.1127 18.5873C83.6774 18.844 84.1577 19.207 84.5537 19.6763C84.8764 20.0577 85.0964 20.483 85.2137 20.9523C85.331 21.4217 85.3897 21.957 85.3897 22.5583L85.3897 29.7303L81.4077 29.7303L81.4077 24.0323C81.4077 23.475 81.3674 23.024 81.2867 22.6793C81.206 22.3347 81.063 22.0597 80.8577 21.8543C80.6817 21.6783 80.4837 21.5537 80.2637 21.4803C80.0437 21.407 79.809 21.3703 79.5597 21.3703C78.885 21.3703 78.368 21.572 78.0087 21.9753C77.6494 22.3787 77.4697 22.9543 77.4697 23.7023L77.4697 29.7303L73.4877 29.7303L73.4877 18.4443Z"/>
<path d="M97.3457 22.4483C97.2137 21.891 96.9424 21.4437 96.5317 21.1063C96.121 20.769 95.6224 20.6003 95.0357 20.6003C94.4197 20.6003 93.9174 20.7617 93.5287 21.0843C93.14 21.407 92.8944 21.8617 92.7917 22.4483L97.3457 22.4483ZM92.6817 24.7583C92.6817 26.4743 93.4884 27.3323 95.1017 27.3323C95.967 27.3323 96.6197 26.9803 97.0597 26.2763L100.91 26.2763C100.132 28.8577 98.189 30.1483 95.0797 30.1483C94.1264 30.1483 93.2537 30.0053 92.4617 29.7193C91.6697 29.4333 90.9914 29.0263 90.4267 28.4983C89.862 27.9703 89.4257 27.3397 89.1177 26.6063C88.8097 25.873 88.6557 25.0517 88.6557 24.1423C88.6557 23.2037 88.8024 22.3567 89.0957 21.6013C89.389 20.846 89.807 20.2043 90.3497 19.6763C90.8924 19.1483 91.5487 18.7413 92.3187 18.4553C93.0887 18.1693 93.9577 18.0263 94.9257 18.0263C95.879 18.0263 96.737 18.1693 97.4997 18.4553C98.2624 18.7413 98.9077 19.1557 99.4357 19.6983C99.9637 20.241 100.367 20.9047 100.646 21.6893C100.924 22.474 101.064 23.3577 101.064 24.3403L101.064 24.7583L92.6817 24.7583Z"/>
<path d="M108.928 21.7663L108.928 29.7303L104.946 29.7303L104.946 21.7663L103.626 21.7663L103.626 18.4443L104.946 18.4443L104.946 15.0563L108.928 15.0563L108.928 18.4443L111.194 18.4443L111.194 21.7663L108.928 21.7663Z"/>
<path d="M116.77 18.4443L119.476 24.3843L122.292 18.4443L124.8 18.4443L127.616 24.5603L130.454 18.4443L134.876 18.4443L128.98 29.7303L126.318 29.7303L123.502 23.5483L120.818 29.7303L118.112 29.7303L112.326 18.4443L116.77 18.4443Z"/>
<path d="M140.43 24.0323C140.43 24.4137 140.499 24.762 140.639 25.0773C140.778 25.3927 140.961 25.6677 141.189 25.9023C141.416 26.137 141.687 26.3203 142.003 26.4523C142.318 26.5843 142.652 26.6503 143.004 26.6503C143.356 26.6503 143.689 26.5843 144.005 26.4523C144.32 26.3203 144.591 26.137 144.819 25.9023C145.046 25.6677 145.229 25.3927 145.369 25.0773C145.508 24.762 145.578 24.421 145.578 24.0543C145.578 23.7023 145.508 23.3687 145.369 23.0533C145.229 22.738 145.046 22.463 144.819 22.2283C144.591 21.9937 144.32 21.8103 144.005 21.6783C143.689 21.5463 143.356 21.4803 143.004 21.4803C142.652 21.4803 142.318 21.5463 142.003 21.6783C141.687 21.8103 141.416 21.9937 141.189 22.2283C140.961 22.463 140.778 22.7343 140.639 23.0423C140.499 23.3503 140.43 23.6803 140.43 24.0323ZM136.228 23.9883C136.228 23.1523 136.396 22.3713 136.734 21.6453C137.071 20.9193 137.54 20.2887 138.142 19.7533C138.743 19.218 139.458 18.7963 140.287 18.4883C141.115 18.1803 142.021 18.0263 143.004 18.0263C143.972 18.0263 144.87 18.1767 145.699 18.4773C146.527 18.778 147.246 19.196 147.855 19.7313C148.463 20.2667 148.936 20.9047 149.274 21.6453C149.611 22.386 149.78 23.2037 149.78 24.0983C149.78 24.993 149.607 25.8107 149.263 26.5513C148.918 27.292 148.445 27.93 147.844 28.4653C147.242 29.0007 146.52 29.415 145.677 29.7083C144.833 30.0017 143.92 30.1483 142.938 30.1483C141.97 30.1483 141.075 30.0017 140.254 29.7083C139.432 29.415 138.725 28.997 138.131 28.4543C137.537 27.9117 137.071 27.2627 136.734 26.5073C136.396 25.752 136.228 24.9123 136.228 23.9883Z"/>
<path d="M153.068 18.4443L157.05 18.4443L157.05 20.2923C157.475 19.6177 157.996 19.1007 158.612 18.7413C159.228 18.382 159.946 18.2023 160.768 18.2023C160.87 18.2023 160.984 18.2023 161.109 18.2023C161.233 18.2023 161.376 18.217 161.538 18.2463L161.538 22.0523C161.01 21.7883 160.438 21.6563 159.822 21.6563C158.898 21.6563 158.205 21.9313 157.743 22.4813C157.281 23.0313 157.05 23.8343 157.05 24.8903L157.05 29.7303L153.068 29.7303L153.068 18.4443Z"/>
<path d="M168.302 11.4703L168.302 22.5143L172.482 18.4443L177.938 18.4443L172.284 23.6583L178.268 29.7303L172.68 29.7303L168.302 25.1323L168.302 29.7303L164.32 29.7303L164.32 11.4703L168.302 11.4703Z"/>
<path d="M178.85 22.1843L185.164 22.1843L185.164 25.5063L178.85 25.5063L178.85 22.1843Z"/>
<path d="M191.224 24.0323C191.224 24.399 191.29 24.74 191.422 25.0553C191.554 25.3707 191.733 25.6457 191.961 25.8803C192.188 26.115 192.459 26.2983 192.775 26.4303C193.09 26.5623 193.431 26.6283 193.798 26.6283C194.15 26.6283 194.483 26.5623 194.799 26.4303C195.114 26.2983 195.385 26.115 195.613 25.8803C195.84 25.6457 196.023 25.3707 196.163 25.0553C196.302 24.74 196.372 24.4063 196.372 24.0543C196.372 23.6877 196.302 23.3503 196.163 23.0423C196.023 22.7343 195.836 22.463 195.602 22.2283C195.367 21.9937 195.092 21.8103 194.777 21.6783C194.461 21.5463 194.135 21.4803 193.798 21.4803C193.446 21.4803 193.116 21.55 192.808 21.6893C192.5 21.8287 192.228 22.012 191.994 22.2393C191.759 22.4667 191.572 22.7343 191.433 23.0423C191.293 23.3503 191.224 23.6803 191.224 24.0323ZM200.156 18.4443L200.156 28.9603C200.156 29.591 200.119 30.1557 200.046 30.6543C199.972 31.153 199.87 31.593 199.738 31.9743C199.562 32.4583 199.287 32.9093 198.913 33.3273C198.539 33.7453 198.088 34.1083 197.56 34.4163C197.032 34.7243 196.434 34.9663 195.767 35.1423C195.099 35.3183 194.377 35.4063 193.6 35.4063C192.72 35.4063 191.913 35.2963 191.18 35.0763C190.446 34.8563 189.805 34.552 189.255 34.1633C188.705 33.7747 188.254 33.32 187.902 32.7993C187.55 32.2787 187.315 31.7103 187.198 31.0943L191.686 31.0943C191.964 31.8423 192.595 32.2163 193.578 32.2163C194.414 32.2163 195.055 31.9817 195.503 31.5123C195.95 31.043 196.174 30.3903 196.174 29.5543L196.174 28.4763C195.88 28.755 195.598 28.986 195.327 29.1693C195.055 29.3527 194.78 29.503 194.502 29.6203C194.223 29.7377 193.93 29.822 193.622 29.8733C193.314 29.9247 192.976 29.9503 192.61 29.9503C191.803 29.9503 191.062 29.811 190.388 29.5323C189.713 29.2537 189.13 28.865 188.639 28.3663C188.147 27.8677 187.766 27.27 187.495 26.5733C187.223 25.8767 187.088 25.103 187.088 24.2523C187.088 23.387 187.234 22.584 187.528 21.8433C187.821 21.1027 188.221 20.4573 188.727 19.9073C189.233 19.3573 189.834 18.9247 190.531 18.6093C191.227 18.294 191.986 18.1363 192.808 18.1363C194.142 18.1363 195.264 18.635 196.174 19.6323L196.174 18.4443L200.156 18.4443Z"/>
<path d="M204.258 18.4443L208.24 18.4443L208.24 20.2923C208.665 19.6177 209.186 19.1007 209.802 18.7413C210.418 18.382 211.136 18.2023 211.958 18.2023C212.06 18.2023 212.174 18.2023 212.299 18.2023C212.423 18.2023 212.566 18.217 212.728 18.2463L212.728 22.0523C212.2 21.7883 211.628 21.6563 211.012 21.6563C210.088 21.6563 209.395 21.9313 208.933 22.4813C208.471 23.0313 208.24 23.8343 208.24 24.8903L208.24 29.7303L204.258 29.7303L204.258 18.4443Z"/>
<path d="M219.338 24.0543C219.338 24.421 219.404 24.762 219.536 25.0773C219.668 25.3927 219.847 25.6677 220.075 25.9023C220.302 26.137 220.573 26.3203 220.889 26.4523C221.204 26.5843 221.545 26.6503 221.912 26.6503C222.264 26.6503 222.597 26.5843 222.913 26.4523C223.228 26.3203 223.499 26.137 223.727 25.9023C223.954 25.6677 224.137 25.3963 224.277 25.0883C224.416 24.7803 224.486 24.4503 224.486 24.0983C224.486 23.7463 224.416 23.4127 224.277 23.0973C224.137 22.782 223.954 22.507 223.727 22.2723C223.499 22.0377 223.228 21.8543 222.913 21.7223C222.597 21.5903 222.264 21.5243 221.912 21.5243C221.545 21.5243 221.204 21.5903 220.889 21.7223C220.573 21.8543 220.302 22.0377 220.075 22.2723C219.847 22.507 219.668 22.7747 219.536 23.0753C219.404 23.376 219.338 23.7023 219.338 24.0543ZM224.354 18.4443L228.358 18.4443L228.358 29.7303L224.354 29.7303L224.354 28.4763C223.503 29.547 222.352 30.0823 220.9 30.0823C220.078 30.0823 219.323 29.932 218.634 29.6313C217.944 29.3307 217.343 28.909 216.83 28.3663C216.316 27.8237 215.917 27.1857 215.631 26.4523C215.345 25.719 215.202 24.9197 215.202 24.0543C215.202 23.2477 215.341 22.4813 215.62 21.7553C215.898 21.0293 216.287 20.395 216.786 19.8523C217.284 19.3097 217.878 18.8807 218.568 18.5653C219.257 18.25 220.02 18.0923 220.856 18.0923C222.264 18.0923 223.43 18.5837 224.354 19.5663L224.354 18.4443Z"/>
<path d="M241.062 24.1203C241.062 23.7683 240.999 23.4347 240.875 23.1193C240.75 22.804 240.57 22.529 240.336 22.2943C240.101 22.0597 239.826 21.8727 239.511 21.7333C239.195 21.594 238.854 21.5243 238.488 21.5243C238.136 21.5243 237.806 21.5903 237.498 21.7223C237.19 21.8543 236.922 22.0377 236.695 22.2723C236.467 22.507 236.284 22.782 236.145 23.0973C236.005 23.4127 235.936 23.7463 235.936 24.0983C235.936 24.4503 236.002 24.7803 236.134 25.0883C236.266 25.3963 236.449 25.664 236.684 25.8913C236.918 26.1187 237.193 26.302 237.509 26.4413C237.824 26.5807 238.158 26.6503 238.51 26.6503C238.862 26.6503 239.192 26.5843 239.5 26.4523C239.808 26.3203 240.075 26.137 240.303 25.9023C240.53 25.6677 240.713 25.3963 240.853 25.0883C240.992 24.7803 241.062 24.4577 241.062 24.1203ZM236.046 35.3623L232.064 35.3623L232.064 18.4443L236.046 18.4443L236.046 19.6983C236.896 18.6277 238.055 18.0923 239.522 18.0923C240.328 18.0923 241.08 18.25 241.777 18.5653C242.473 18.8807 243.078 19.3097 243.592 19.8523C244.105 20.395 244.505 21.033 244.791 21.7663C245.077 22.4997 245.22 23.2843 245.22 24.1203C245.22 24.9563 245.077 25.7337 244.791 26.4523C244.505 27.171 244.109 27.8017 243.603 28.3443C243.097 28.887 242.499 29.3123 241.81 29.6203C241.12 29.9283 240.372 30.0823 239.566 30.0823C238.158 30.0823 236.984 29.5983 236.046 28.6303L236.046 35.3623Z"/>
<path d="M248.486 11.4703L252.468 11.4703L252.468 19.8743C253.01 19.2143 253.56 18.7707 254.118 18.5433C254.675 18.316 255.328 18.2023 256.076 18.2023C257.498 18.2023 258.573 18.5947 259.299 19.3793C260.025 20.164 260.388 21.2237 260.388 22.5583L260.388 29.7303L256.406 29.7303L256.406 24.0323C256.406 23.4603 256.362 22.9983 256.274 22.6463C256.186 22.2943 256.039 22.023 255.834 21.8323C255.482 21.5243 255.056 21.3703 254.558 21.3703C253.883 21.3703 253.366 21.572 253.007 21.9753C252.647 22.3787 252.468 22.9543 252.468 23.7023L252.468 29.7303L248.486 29.7303L248.486 11.4703Z"/>
</g>
<g fill="#2d355d" opacity="1" stroke="none">
<path d="M52.0682 17.1147L54.7522 22.9007L57.4802 17.1147L61.9242 17.1147L56.0502 28.4007L53.3882 28.4007L47.5802 17.1147L52.0682 17.1147Z"/>
<path d="M63.1662 20.8547L69.4802 20.8547L69.4802 24.1767L63.1662 24.1767L63.1662 20.8547Z"/>
<path d="M71.8442 17.1147L75.8262 17.1147L75.8262 18.5447C76.3689 17.8847 76.9189 17.441 77.4762 17.2137C78.0335 16.9864 78.6862 16.8727 79.4342 16.8727C80.2262 16.8727 80.9045 17.001 81.4692 17.2577C82.0339 17.5144 82.5142 17.8774 82.9102 18.3467C83.2329 18.728 83.4529 19.1534 83.5702 19.6227C83.6875 20.092 83.7462 20.6274 83.7462 21.2287L83.7462 28.4007L79.7642 28.4007L79.7642 22.7027C79.7642 22.1454 79.7239 21.6944 79.6432 21.3497C79.5625 21.005 79.4195 20.73 79.2142 20.5247C79.0382 20.3487 78.8402 20.224 78.6202 20.1507C78.4002 20.0774 78.1655 20.0407 77.9162 20.0407C77.2415 20.0407 76.7245 20.2424 76.3652 20.6457C76.0059 21.049 75.8262 21.6247 75.8262 22.3727L75.8262 28.4007L71.8442 28.4007L71.8442 17.1147Z"/>
<path d="M95.7022 21.1187C95.5702 20.5614 95.2989 20.114 94.8882 19.7767C94.4775 19.4394 93.9789 19.2707 93.3922 19.2707C92.7762 19.2707 92.2739 19.432 91.8852 19.7547C91.4965 20.0774 91.2509 20.532 91.1482 21.1187L95.7022 21.1187ZM91.0382 23.4287C91.0382 25.1447 91.8449 26.0027 93.4582 26.0027C94.3235 26.0027 94.9762 25.6507 95.4162 24.9467L99.2662 24.9467C98.4889 27.528 96.5455 28.8187 93.4362 28.8187C92.4829 28.8187 91.6102 28.6757 90.8182 28.3897C90.0262 28.1037 89.3479 27.6967 88.7832 27.1687C88.2185 26.6407 87.7822 26.01 87.4742 25.2767C87.1662 24.5434 87.0122 23.722 87.0122 22.8127C87.0122 21.874 87.1589 21.027 87.4522 20.2717C87.7455 19.5164 88.1635 18.8747 88.7062 18.3467C89.2489 17.8187 89.9052 17.4117 90.6752 17.1257C91.4452 16.8397 92.3142 16.6967 93.2822 16.6967C94.2355 16.6967 95.0935 16.8397 95.8562 17.1257C96.6189 17.4117 97.2642 17.826 97.7922 18.3687C98.3202 18.9114 98.7235 19.575 99.0022 20.3597C99.2809 21.1444 99.4202 22.028 99.4202 23.0107L99.4202 23.4287L91.0382 23.4287Z"/>
<path d="M107.284 20.4367L107.284 28.4007L103.302 28.4007L103.302 20.4367L101.982 20.4367L101.982 17.1147L103.302 17.1147L103.302 13.7267L107.284 13.7267L107.284 17.1147L109.55 17.1147L109.55 20.4367L107.284 20.4367Z"/>
<path d="M115.126 17.1147L117.832 23.0547L120.648 17.1147L123.156 17.1147L125.972 23.2307L128.81 17.1147L133.232 17.1147L127.336 28.4007L124.674 28.4007L121.858 22.2187L119.174 28.4007L116.468 28.4007L110.682 17.1147L115.126 17.1147Z"/>
<path d="M138.786 22.7027C138.786 23.084 138.856 23.4324 138.995 23.7477C139.135 24.063 139.318 24.338 139.545 24.5727C139.773 24.8074 140.044 24.9907 140.359 25.1227C140.675 25.2547 141.008 25.3207 141.36 25.3207C141.712 25.3207 142.046 25.2547 142.361 25.1227C142.677 24.9907 142.948 24.8074 143.175 24.5727C143.403 24.338 143.586 24.063 143.725 23.7477C143.865 23.4324 143.934 23.0914 143.934 22.7247C143.934 22.3727 143.865 22.039 143.725 21.7237C143.586 21.4084 143.403 21.1334 143.175 20.8987C142.948 20.664 142.677 20.4807 142.361 20.3487C142.046 20.2167 141.712 20.1507 141.36 20.1507C141.008 20.1507 140.675 20.2167 140.359 20.3487C140.044 20.4807 139.773 20.664 139.545 20.8987C139.318 21.1334 139.135 21.4047 138.995 21.7127C138.856 22.0207 138.786 22.3507 138.786 22.7027ZM134.584 22.6587C134.584 21.8227 134.753 21.0417 135.09 20.3157C135.428 19.5897 135.897 18.959 136.498 18.4237C137.1 17.8884 137.815 17.4667 138.643 17.1587C139.472 16.8507 140.378 16.6967 141.36 16.6967C142.328 16.6967 143.227 16.847 144.055 17.1477C144.884 17.4484 145.603 17.8664 146.211 18.4017C146.82 18.937 147.293 19.575 147.63 20.3157C147.968 21.0564 148.136 21.874 148.136 22.7687C148.136 23.6634 147.964 24.481 147.619 25.2217C147.275 25.9624 146.802 26.6004 146.2 27.1357C145.599 27.671 144.877 28.0854 144.033 28.3787C143.19 28.672 142.277 28.8187 141.294 28.8187C140.326 28.8187 139.432 28.672 138.61 28.3787C137.789 28.0854 137.081 27.6674 136.487 27.1247C135.893 26.582 135.428 25.933 135.09 25.1777C134.753 24.4224 134.584 23.5827 134.584 22.6587Z"/>
<path d="M151.424 17.1147L155.406 17.1147L155.406 18.9627C155.832 18.288 156.352 17.771 156.968 17.4117C157.584 17.0524 158.303 16.8727 159.124 16.8727C159.227 16.8727 159.341 16.8727 159.465 16.8727C159.59 16.8727 159.733 16.8874 159.894 16.9167L159.894 20.7227C159.366 20.4587 158.794 20.3267 158.178 20.3267C157.254 20.3267 156.561 20.6017 156.099 21.1517C155.637 21.7017 155.406 22.5047 155.406 23.5607L155.406 28.4007L151.424 28.4007L151.424 17.1147Z"/>
<path d="M166.658 10.1407L166.658 21.1847L170.838 17.1147L176.294 17.1147L170.64 22.3287L176.624 28.4007L171.036 28.4007L166.658 23.8027L166.658 28.4007L162.676 28.4007L162.676 10.1407L166.658 10.1407Z"/>
<path d="M177.206 20.8547L183.52 20.8547L183.52 24.1767L177.206 24.1767L177.206 20.8547Z"/>
<path d="M189.58 22.7027C189.58 23.0694 189.646 23.4104 189.778 23.7257C189.91 24.041 190.09 24.316 190.317 24.5507C190.545 24.7854 190.816 24.9687 191.131 25.1007C191.447 25.2327 191.788 25.2987 192.154 25.2987C192.506 25.2987 192.84 25.2327 193.155 25.1007C193.471 24.9687 193.742 24.7854 193.969 24.5507C194.197 24.316 194.38 24.041 194.519 23.7257C194.659 23.4104 194.728 23.0767 194.728 22.7247C194.728 22.358 194.659 22.0207 194.519 21.7127C194.38 21.4047 194.193 21.1334 193.958 20.8987C193.724 20.664 193.449 20.4807 193.133 20.3487C192.818 20.2167 192.492 20.1507 192.154 20.1507C191.802 20.1507 191.472 20.2204 191.164 20.3597C190.856 20.499 190.585 20.6824 190.35 20.9097C190.116 21.137 189.929 21.4047 189.789 21.7127C189.65 22.0207 189.58 22.3507 189.58 22.7027ZM198.512 17.1147L198.512 27.6307C198.512 28.2614 198.476 28.826 198.402 29.3247C198.329 29.8234 198.226 30.2634 198.094 30.6447C197.918 31.1287 197.643 31.5797 197.269 31.9977C196.895 32.4157 196.444 32.7787 195.916 33.0867C195.388 33.3947 194.791 33.6367 194.123 33.8127C193.456 33.9887 192.734 34.0767 191.956 34.0767C191.076 34.0767 190.27 33.9667 189.536 33.7467C188.803 33.5267 188.161 33.2224 187.611 32.8337C187.061 32.445 186.61 31.9904 186.258 31.4697C185.906 30.949 185.672 30.3807 185.554 29.7647L190.042 29.7647C190.321 30.5127 190.952 30.8867 191.934 30.8867C192.77 30.8867 193.412 30.652 193.859 30.1827C194.307 29.7134 194.53 29.0607 194.53 28.2247L194.53 27.1467C194.237 27.4254 193.955 27.6564 193.683 27.8397C193.412 28.023 193.137 28.1734 192.858 28.2907C192.58 28.408 192.286 28.4924 191.978 28.5437C191.67 28.595 191.333 28.6207 190.966 28.6207C190.16 28.6207 189.419 28.4814 188.744 28.2027C188.07 27.924 187.487 27.5354 186.995 27.0367C186.504 26.538 186.123 25.9404 185.851 25.2437C185.58 24.547 185.444 23.7734 185.444 22.9227C185.444 22.0574 185.591 21.2544 185.884 20.5137C186.178 19.773 186.577 19.1277 187.083 18.5777C187.589 18.0277 188.191 17.595 188.887 17.2797C189.584 16.9644 190.343 16.8067 191.164 16.8067C192.499 16.8067 193.621 17.3054 194.53 18.3027L194.53 17.1147L198.512 17.1147Z"/>
<path d="M202.614 17.1147L206.596 17.1147L206.596 18.9627C207.022 18.288 207.542 17.771 208.158 17.4117C208.774 17.0524 209.493 16.8727 210.314 16.8727C210.417 16.8727 210.531 16.8727 210.655 16.8727C210.78 16.8727 210.923 16.8874 211.084 16.9167L211.084 20.7227C210.556 20.4587 209.984 20.3267 209.368 20.3267C208.444 20.3267 207.751 20.6017 207.289 21.1517C206.827 21.7017 206.596 22.5047 206.596 23.5607L206.596 28.4007L202.614 28.4007L202.614 17.1147Z"/>
<path d="M217.694 22.7247C217.694 23.0914 217.76 23.4324 217.892 23.7477C218.024 24.063 218.204 24.338 218.431 24.5727C218.659 24.8074 218.93 24.9907 219.245 25.1227C219.561 25.2547 219.902 25.3207 220.268 25.3207C220.62 25.3207 220.954 25.2547 221.269 25.1227C221.585 24.9907 221.856 24.8074 222.083 24.5727C222.311 24.338 222.494 24.0667 222.633 23.7587C222.773 23.4507 222.842 23.1207 222.842 22.7687C222.842 22.4167 222.773 22.083 222.633 21.7677C222.494 21.4524 222.311 21.1774 222.083 20.9427C221.856 20.708 221.585 20.5247 221.269 20.3927C220.954 20.2607 220.62 20.1947 220.268 20.1947C219.902 20.1947 219.561 20.2607 219.245 20.3927C218.93 20.5247 218.659 20.708 218.431 20.9427C218.204 21.1774 218.024 21.445 217.892 21.7457C217.76 22.0464 217.694 22.3727 217.694 22.7247ZM222.71 17.1147L226.714 17.1147L226.714 28.4007L222.71 28.4007L222.71 27.1467C221.86 28.2174 220.708 28.7527 219.256 28.7527C218.435 28.7527 217.68 28.6024 216.99 28.3017C216.301 28.001 215.7 27.5794 215.186 27.0367C214.673 26.494 214.273 25.856 213.987 25.1227C213.701 24.3894 213.558 23.59 213.558 22.7247C213.558 21.918 213.698 21.1517 213.976 20.4257C214.255 19.6997 214.644 19.0654 215.142 18.5227C215.641 17.98 216.235 17.551 216.924 17.2357C217.614 16.9204 218.376 16.7627 219.212 16.7627C220.62 16.7627 221.786 17.254 222.71 18.2367L222.71 17.1147Z"/>
<path d="M239.418 22.7907C239.418 22.4387 239.356 22.105 239.231 21.7897C239.107 21.4744 238.927 21.1994 238.692 20.9647C238.458 20.73 238.183 20.543 237.867 20.4037C237.552 20.2644 237.211 20.1947 236.844 20.1947C236.492 20.1947 236.162 20.2607 235.854 20.3927C235.546 20.5247 235.279 20.708 235.051 20.9427C234.824 21.1774 234.641 21.4524 234.501 21.7677C234.362 22.083 234.292 22.4167 234.292 22.7687C234.292 23.1207 234.358 23.4507 234.49 23.7587C234.622 24.0667 234.806 24.3344 235.04 24.5617C235.275 24.789 235.55 24.9724 235.865 25.1117C236.181 25.251 236.514 25.3207 236.866 25.3207C237.218 25.3207 237.548 25.2547 237.856 25.1227C238.164 24.9907 238.432 24.8074 238.659 24.5727C238.887 24.338 239.07 24.0667 239.209 23.7587C239.349 23.4507 239.418 23.128 239.418 22.7907ZM234.402 34.0327L230.42 34.0327L230.42 17.1147L234.402 17.1147L234.402 18.3687C235.253 17.298 236.412 16.7627 237.878 16.7627C238.685 16.7627 239.437 16.9204 240.133 17.2357C240.83 17.551 241.435 17.98 241.948 18.5227C242.462 19.0654 242.861 19.7034 243.147 20.4367C243.433 21.17 243.576 21.9547 243.576 22.7907C243.576 23.6267 243.433 24.404 243.147 25.1227C242.861 25.8414 242.465 26.472 241.959 27.0147C241.453 27.5574 240.856 27.9827 240.166 28.2907C239.477 28.5987 238.729 28.7527 237.922 28.7527C236.514 28.7527 235.341 28.2687 234.402 27.3007L234.402 34.0327Z"/>
<path d="M246.842 10.1407L250.824 10.1407L250.824 18.5447C251.367 17.8847 251.917 17.441 252.474 17.2137C253.032 16.9864 253.684 16.8727 254.432 16.8727C255.855 16.8727 256.929 17.265 257.655 18.0497C258.381 18.8344 258.744 19.894 258.744 21.2287L258.744 28.4007L254.762 28.4007L254.762 22.7027C254.762 22.1307 254.718 21.6687 254.63 21.3167C254.542 20.9647 254.396 20.6934 254.19 20.5027C253.838 20.1947 253.413 20.0407 252.914 20.0407C252.24 20.0407 251.723 20.2424 251.363 20.6457C251.004 21.049 250.824 21.6247 250.824 22.3727L250.824 28.4007L246.842 28.4007L246.842 10.1407Z"/>
</g>
</g>
</svg>
